<svg xmlns="http://www.w3.org/2000/svg" viewBox="0 0 512 512" width="512" height="512">
  <rect width="512" height="512" rx="96" fill="#171717"/>
  <rect x="32" y="32" width="448" height="448" rx="64" fill="#262626" stroke="#404040" stroke-width="8"/>
  
  <!-- Pixel Grid Pattern Background -->
  <g fill="#333333" opacity="0.5">
    <rect x="96" y="96" width="32" height="32" />
    <rect x="160" y="96" width="32" height="32" />
    <rect x="224" y="96" width="32" height="32" />
    <rect x="288" y="96" width="32" height="32" />
    <rect x="352" y="96" width="32" height="32" />
    
    <rect x="96" y="160" width="32" height="32" />
    <rect x="352" y="160" width="32" height="32" />
    
    <rect x="96" y="224" width="32" height="32" />
    <rect x="352" y="224" width="32" height="32" />
    
    <rect x="96" y="288" width="32" height="32" />
    <rect x="352" y="288" width="32" height="32" />

    <rect x="96" y="352" width="32" height="32" />
    <rect x="160" y="352" width="32" height="32" />
    <rect x="224" y="352" width="32" height="32" />
    <rect x="288" y="352" width="32" height="32" />
    <rect x="352" y="352" width="32" height="32" />
  </g>

  <!-- Pixel Art Pencil / Cursor Icon in Center -->
  <!-- Pencil Tip & Body in Pixel Style -->
  <g fill="#3b82f6"> <!-- Primary Accent Blue -->
    <rect x="288" y="160" width="32" height="32" />
    <rect x="320" y="128" width="32" height="32" />
    <rect x="352" y="96" width="32" height="32" />
    <rect x="256" y="192" width="32" height="32" />
    <rect x="224" y="224" width="32" height="32" />
  </g>
  <g fill="#60a5fa">
    <rect x="256" y="160" width="32" height="32" />
    <rect x="288" y="128" width="32" height="32" />
    <rect x="320" y="96" width="32" height="32" />
    <rect x="224" y="192" width="32" height="32" />
    <rect x="192" y="224" width="32" height="32" />
  </g>
  <!-- Wood / Tip section -->
  <g fill="#f59e0b">
    <rect x="192" y="256" width="32" height="32" />
    <rect x="160" y="288" width="32" height="32" />
    <rect x="160" y="256" width="32" height="32" />
  </g>
  <!-- Lead Tip -->
  <g fill="#f43f5e">
    <rect x="128" y="320" width="32" height="32" />
    <rect x="96" y="352" width="32" height="32" />
    <rect x="128" y="352" width="32" height="32" />
  </g>
  <!-- Sparkles / Drawn pixel dots -->
  <rect x="288" y="320" width="32" height="32" fill="#10b981" />
  <rect x="352" y="256" width="32" height="32" fill="#a855f7" />
  <rect x="224" y="352" width="32" height="32" fill="#ec4899" />
</svg>
